{"title":"The.Last.Ship.S02E11.HDTV.480p.x264.AAC-VYTO [P2PDL]","uid":12280131,"size":151876147,"categoryP":"video","categoryS":"hd___tv_shows","magnet":"?xt=urn:btih:52b6c730bba7bf76882491b810922b011796bce8&amp;dn=The.Last.Ship.S02E11.HDTV.480p.x264.AAC-VYTO+%5BP2PDL%5D&amp;tr=udp%3A%2F%2Ftracker.openbittorrent.com%3A80&amp;tr=udp%3A%2F%2Fopen.demonii.com%3A1337&amp;tr=udp%3A%2F%2Ftracker.coppersurfer.tk%3A6969&amp;tr=udp%3A%2F%2Fexodus.desync.com%3A6969","seeders":2,"leechers":3,"uploader":"ValidusVyto","files":6,"time":1440404379,"description":"____    ____ ____    ____ .___________.  ______   \n     /   /      /   / |           | /  __    \n    /   /      /   /  `---|  |----`|  |  |  | \n        /     _    _/       |  |     |  |  |  | \n       /        |  |         |  |     |  `--'  | \n    __/         |__|         |__|      ______/  \n                                                  \nPresenting Small Encodes with quality for years!\n                                                                                                   \n                                                                                                   \n\nThe.Last.Ship.S02E11.HDTV.480p.x264.AAC-VYTO\n\n\nGeneral\nFormat                         : MPEG-4\nFile size                      : 140 MiB\nDuration                       : 41mn 53s\nOverall bit rate               : 469 Kbps\n\nVideo\nFormat                         : AVC\nBit rate                       : 434 Kbps\nWidth                          : 720 pixels\nHeight                         : 400 pixels\nDisplay aspect ratio           : 16:9\nFrame rate mode                : Constant\nFrame rate                     : 23.976 fps\nBit depth                      : 8 bits\nStream size                    : 130 MiB (93%)\nWriting library                : x264 core 148 r2597\n\nAudio\nFormat                         : AAC\nBit rate mode                  : Variable\nBit rate                       : 32.0 Kbps\nChannel(s)                     : 2 channels\nChannel positions              : Front: L R\nSampling rate                  : 48.0 KHz\nStream size                    : 9.59 MiB (7%)\n\n\nScreenshots:\n &lt;a href=&quot;\nhttp://ititli.com/Uo&quot; rel=&quot;nofollow&quot; target=&quot;_NEW&quot;&gt;\nhttp://ititli.com/Uo&lt;/a&gt; &lt;a href=&quot;\nhttp://ititli.com/UG&quot; rel=&quot;nofollow&quot; target=&quot;_NEW&quot;&gt;\nhttp://ititli.com/UG&lt;/a&gt; &lt;a href=&quot;\nhttp://ititli.com/UH&quot; rel=&quot;nofollow&quot; target=&quot;_NEW&quot;&gt;\nhttp://ititli.com/UH&lt;/a&gt; &lt;a href=&quot;\nhttp://ititli.com/UM&quot; rel=&quot;nofollow&quot; target=&quot;_NEW&quot;&gt;\nhttp://ititli.com/UM&lt;/a&gt; &lt;a href=&quot;\nhttp://ititli.com/UU&quot; rel=&quot;nofollow&quot; target=&quot;_NEW&quot;&gt;\nhttp://ititli.com/UU&lt;/a&gt; &lt;a href=&quot;\nhttp://ititli.com/Uh&quot; rel=&quot;nofollow&quot; target=&quot;_NEW&quot;&gt;\nhttp://ititli.com/Uh&lt;/a&gt; &lt;a href=&quot;\nhttp://ititli.com/Us&quot; rel=&quot;nofollow&quot; target=&quot;_NEW&quot;&gt;\nhttp://ititli.com/Us&lt;/a&gt; &lt;a href=&quot;\nhttp://ititli.com/UY&quot; rel=&quot;nofollow&quot; target=&quot;_NEW&quot;&gt;\nhttp://ititli.com/UY&lt;/a&gt; &lt;a href=&quot;\nhttp://ititli.com/U4&quot; rel=&quot;nofollow&quot; target=&quot;_NEW&quot;&gt;\nhttp://ititli.com/U4&lt;/a&gt; &lt;a href=&quot;\nhttp://ititli.com/UK&quot; rel=&quot;nofollow&quot; target=&quot;_NEW&quot;&gt;\nhttp://ititli.com/UK&lt;/a&gt; &lt;a href=&quot;\nhttp://ititli.com/UV&quot; rel=&quot;nofollow&quot; target=&quot;_NEW&quot;&gt;\nhttp://ititli.com/UV&lt;/a&gt; &lt;a href=&quot;\nhttp://ititli.com/Ut&quot; rel=&quot;nofollow&quot; target=&quot;_NEW&quot;&gt;\nhttp://ititli.com/Ut&lt;/a&gt;\n\n\n----------------------------------------------------------------------------------------------------\n\n\nEncoder Notes: Looking For Early Access To Anything You Can Provide DVDScr, R5, DVDR, BluRay, Direct\nAudio, Music Releases and Seedboxes. If You Got anything to offer please contact us.\n\nSupport us by donating BC - 1FgwdzPsd1y25Gea8wP1qni35uGCtmkRC","torrent":{"xt":"urn:btih:52b6c730bba7bf76882491b810922b011796bce8","amp;dn":"The.Last.Ship.S02E11.HDTV.480p.x264.AAC-VYTO+%5BP2PDL%5D","amp;tr":["udp%3A%2F%2Ftracker.openbittorrent.com%3A80","udp%3A%2F%2Fopen.demonii.com%3A1337","udp%3A%2F%2Ftracker.coppersurfer.tk%3A6969","udp%3A%2F%2Fexodus.desync.com%3A6969"],"infoHash":"52b6c730bba7bf76882491b810922b011796bce8","infoHashBuffer":{"type":"Buffer","data":[82,182,199,48,187,167,191,118,136,36,145,184,16,146,43,1,23,150,188,232]},"announce":[],"urlList":[]}}